<svg width="128" height="23" viewBox="0 0 128 23" fill="none" xmlns="http://www.w3.org/2000/svg">
<path d="M20.3704 18.39L21.0304 19.05C21.8104 19.83 21.8104 21.09 21.0304 21.9C20.6404 22.29 20.1304 22.47 19.6204 22.47C19.1104 22.47 18.5704 22.29 18.1804 21.9L17.3704 21.09C15.6004 22.2 13.5304 22.8 11.3704 22.8C8.34039 22.8 5.49039 21.6 3.33039 19.44C1.17039 17.31 0.000390679 14.43 0.000390679 11.4C0.000390679 8.34005 1.17039 5.49005 3.33039 3.33005C3.60039 3.06005 3.90039 2.79005 4.20039 2.55005C4.59039 2.22005 4.98039 1.95005 5.40039 1.68005C5.55039 1.59005 5.67039 1.53005 5.82039 1.44005C6.15039 1.26005 6.51039 1.08005 6.90039 0.930047C7.05039 0.840048 7.17039 0.810049 7.32039 0.750048C7.53039 0.660047 7.74039 0.600048 7.95039 0.510047C8.28039 0.420048 8.64039 0.330048 8.97039 0.240047C9.12039 0.210047 9.24039 0.210047 9.39039 0.180048C10.0504 0.0600476 10.7104 4.8399e-05 11.3704 4.8399e-05C12.1204 4.8399e-05 12.8404 0.0600476 13.5604 0.210047C14.5204 0.390047 15.4504 0.690048 16.3504 1.14005C17.4604 1.68005 18.5104 2.40005 19.4404 3.33005C21.6004 5.49005 22.7704 8.34005 22.7704 11.4C22.7704 13.95 21.9304 16.38 20.3704 18.39ZM17.4904 15.51C19.4404 12.63 19.1404 8.70005 16.5904 6.18005C15.1504 4.74005 13.2604 4.02005 11.3704 4.02005C9.51039 4.02005 7.62039 4.74005 6.18039 6.18005C4.77039 7.56005 4.02039 9.42005 4.02039 11.4C4.02039 13.35 4.77039 15.21 6.18039 16.59C8.40039 18.84 11.7004 19.32 14.4004 18.12L11.2804 14.97C10.5004 14.19 10.5004 12.9 11.2804 12.12C12.0604 11.34 13.3504 11.34 14.1304 12.12L17.4904 15.51ZM43.0338 0.600048C44.1438 0.600048 45.0438 1.50005 45.0438 2.61005V13.92C45.0438 18.57 40.7538 22.47 35.6838 22.47C30.6138 22.47 26.3538 18.57 26.3538 13.92V2.61005C26.3538 1.50005 27.2538 0.600048 28.3638 0.600048C29.4738 0.600048 30.3738 1.50005 30.3738 2.61005V13.92C30.3738 16.35 32.8338 18.45 35.6838 18.45C38.3838 18.45 41.0238 16.41 41.0238 13.92V2.61005C41.0238 1.50005 41.9238 0.600048 43.0338 0.600048Z" fill="#C178FF"/>
<path d="M68.5464 19.14C69.0564 20.13 68.6664 21.33 67.6764 21.84C66.6864 22.35 65.4564 21.93 64.9764 20.94L63.5664 18.18H52.1664L50.7564 20.94C50.4264 21.66 49.7064 22.05 48.9864 22.05C47.4864 22.05 46.4964 20.46 47.1864 19.14L56.0664 1.62005C56.0964 1.59005 56.0964 1.56005 56.1264 1.53005C56.1264 1.50005 56.1564 1.50005 56.1564 1.47005C56.2464 1.35005 56.3364 1.23005 56.4564 1.11005C56.4564 1.08005 56.4864 1.08005 56.5164 1.05005C56.5464 1.02005 56.5764 0.990048 56.6064 0.960049C56.6364 0.960049 56.6664 0.930047 56.6964 0.900048C56.7264 0.870048 56.7564 0.870048 56.7864 0.840048C56.9064 0.750048 57.0564 0.690048 57.2064 0.630047C57.2364 0.630047 57.2364 0.630047 57.2664 0.630047C57.2964 0.600048 57.3564 0.600048 57.3864 0.570048C57.4464 0.570048 57.4764 0.570048 57.5064 0.570048C57.5364 0.540049 57.5664 0.540049 57.5964 0.540049C57.6864 0.540049 57.7764 0.540049 57.8364 0.540049C57.8664 0.510047 57.8664 0.510047 57.8664 0.510047L57.8964 0.540049C57.9564 0.540049 58.0464 0.540049 58.1064 0.540049C58.1064 0.540049 58.1364 0.540049 58.1664 0.540049C58.2264 0.570048 58.2864 0.570048 58.3764 0.600048H58.4064C58.4664 0.630047 58.5564 0.630047 58.6164 0.660047C58.6464 0.690048 58.6764 0.690048 58.6764 0.690048C58.7064 0.720048 58.7364 0.720048 58.7664 0.750048C58.7964 0.750048 58.8264 0.750048 58.8264 0.780047C58.8564 0.780047 58.8864 0.810049 58.8864 0.810049C58.9464 0.840048 59.0064 0.870048 59.0664 0.930047C59.3364 1.14005 59.5464 1.38005 59.6964 1.68005C59.6664 1.68005 59.6664 1.65005 59.6664 1.65005L68.5464 19.14ZM54.2364 14.16H61.4964L57.8664 6.99005L54.2364 14.16ZM84.1609 18.03C85.2709 18.03 86.1709 18.93 86.1709 20.04C86.1709 21.15 85.2709 22.05 84.1609 22.05H73.8109C73.3909 22.05 73.0009 21.93 72.6709 21.72C72.1909 21.39 71.8609 20.88 71.8009 20.25C71.8009 20.19 71.8009 20.13 71.8009 20.04V2.55005C71.8009 1.44005 72.7009 0.540049 73.8109 0.540049C74.9209 0.540049 75.8209 1.44005 75.8209 2.55005V18.03H84.1609Z" fill="#76A4FF"/>
<path d="M104.898 16.17C104.898 16.17 104.898 16.17 104.898 16.2C104.898 17.91 104.238 19.5 103.008 20.67C102.018 21.63 100.218 22.77 97.0975 22.77C96.9775 22.77 96.8875 22.77 96.7675 22.77C96.7375 22.77 96.7375 22.77 96.7375 22.77C93.2875 22.68 90.8575 21.39 88.9675 20.13C88.0375 19.5 87.7675 18.27 88.3675 17.34C88.9975 16.41 90.2275 16.14 91.1575 16.77C92.6875 17.76 94.3975 18.66 96.8575 18.75C96.9475 18.75 97.0075 18.75 97.0975 18.75C98.5075 18.75 99.5575 18.42 100.218 17.79C100.758 17.25 100.878 16.62 100.878 16.2C100.878 16.2 100.878 16.2 100.878 16.17C100.878 15.66 100.848 14.25 95.8675 13.2C95.8375 13.2 95.8375 13.2 95.8375 13.2C93.9775 12.81 92.5975 12.3 91.4875 11.58C89.1775 10.08 88.7275 8.10005 88.7575 6.69005C88.8475 2.22005 91.8475 0.150048 96.1675 0.150048C96.4675 0.150048 96.7975 0.180048 97.1575 0.210047H97.1875C97.1875 0.210047 97.1875 0.210047 97.2175 0.210047C98.8375 0.330048 100.668 0.900048 102.798 2.01005C103.788 2.52005 104.178 3.75005 103.668 4.74005C103.158 5.70005 101.928 6.09005 100.938 5.58005C99.3475 4.77005 97.9975 4.29005 96.9475 4.23005C96.8275 4.23005 96.7375 4.20005 96.6475 4.20005C94.0075 4.05005 93.0175 4.74005 92.8675 5.91005C92.7475 6.96005 92.7475 8.43005 96.6775 9.27005C99.1375 9.78005 100.878 10.44 102.168 11.31C104.418 12.81 104.898 14.79 104.898 16.17ZM125.036 0.600048C126.146 0.600048 127.046 1.50005 127.046 2.61005V13.92C127.046 18.57 122.756 22.47 117.686 22.47C112.616 22.47 108.356 18.57 108.356 13.92V2.61005C108.356 1.50005 109.256 0.600048 110.366 0.600048C111.476 0.600048 112.376 1.50005 112.376 2.61005V13.92C112.376 16.35 114.836 18.45 117.686 18.45C120.386 18.45 123.026 16.41 123.026 13.92V2.61005C123.026 1.50005 123.926 0.600048 125.036 0.600048Z" fill="#8365FF"/>
</svg>
