<svg width="241" height="241" viewBox="0 0 241 241" fill="none" xmlns="http://www.w3.org/2000/svg">
<path d="M120.1 0C186.429 0 240.2 53.7704 240.2 120.1C240.2 186.429 186.429 240.2 120.1 240.2C53.7704 240.2 0 186.429 0 120.1C0.000210287 53.7705 53.7705 0.000210342 120.1 0ZM169.101 72.2002C164.601 72.3002 157.6 74.6996 124.3 88.5996C112.6 93.4996 89.2996 103.6 54.2998 118.8C48.7 121.1 45.7004 123.3 45.4004 125.5C44.9004 129.7 50.9004 131 58.4004 133.4C64.6004 135.4 72.8006 137.7 77.1006 137.8C81.0005 137.9 85.3007 136.3 90.1006 133C122.8 110.9 139.6 99.7002 140.7 99.5C141.5 99.3 142.5 99.1002 143.2 99.7002C143.9 100.3 143.9 101.5 143.8 101.8C143.2 104.3 112.502 132.298 110.7 134.1C103.9 141.1 96.2006 145.4 108.101 153.2C118.4 160 124.301 164.3 134.9 171.2C141.6 175.6 146.9 180.8 153.9 180.2C157.1 179.9 160.401 176.9 162.101 167.9C166.101 146.7 173.9 100.6 175.7 81.5996C175.9 79.9999 175.7 77.9005 175.5 76.9004C175.3 75.9004 175 74.5996 173.8 73.5996C172.3 72.4001 170.101 72.2002 169.101 72.2002Z" fill="url(#paint0_linear_337_15)"/>
<defs>
<linearGradient id="paint0_linear_337_15" x1="120" y1="0" x2="120" y2="238.3" gradientUnits="userSpaceOnUse">
<stop stop-color="#2AABEE"/>
<stop offset="1" stop-color="#229ED9"/>
</linearGradient>
</defs>
</svg>
